HIERARCHY
ROOT Hips
{
	OFFSET 0.000000 0.000000 0.000000
	CHANNELS 6 Xposition Yposition Zposition Xrotation Yrotation Zrotation
	JOINT LeftUpLeg_virtual
	{
		OFFSET 0.000000 0.000000 0.000000
		CHANNELS 3 Xrotation Yrotation Zrotation
		JOINT LeftUpLeg
		{
			OFFSET 13.026900 -6.336304 -1.092800
			CHANNELS 3 Xrotation Yrotation Zrotation
			JOINT LeftLeg
			{
				OFFSET 0.524474 -46.096886 9.782700
				CHANNELS 3 Xrotation Yrotation Zrotation
				JOINT LeftFoot
				{
					OFFSET -0.524474 -53.427422 -12.948200
					CHANNELS 3 Xrotation Yrotation Zrotation
					JOINT LeftToeBase
					{
						OFFSET 0.192200 -14.009700 16.364100
						CHANNELS 3 Xrotation Yrotation Zrotation
						JOINT LeftToe_End
						{
							OFFSET -1.784700 -0.561700 9.474800
							CHANNELS 3 Xrotation Yrotation Zrotation
							End Site
							{
								OFFSET 0 0 0
							}
						}
					}
				}
			}
		}
	}
	JOINT RightUpLeg_virtual
	{
		OFFSET 0.000000 0.000000 0.000000
		CHANNELS 3 Xrotation Yrotation Zrotation
		JOINT RightUpLeg
		{
			OFFSET -12.883000 -6.336304 -1.092800
			CHANNELS 3 Xrotation Yrotation Zrotation
			JOINT RightLeg
			{
				OFFSET -0.524587 -46.096825 9.782800
				CHANNELS 3 Xrotation Yrotation Zrotation
				JOINT RightFoot
				{
					OFFSET 0.524587 -53.427383 -12.948300
					CHANNELS 3 Xrotation Yrotation Zrotation
					JOINT RightToeBase
					{
						OFFSET -0.192200 -14.009700 16.364100
						CHANNELS 3 Xrotation Yrotation Zrotation
						JOINT RightToe_End
						{
							OFFSET 1.784700 -0.561700 9.474800
							CHANNELS 3 Xrotation Yrotation Zrotation
							End Site
							{
								OFFSET 0 0 0
							}
						}
					}
				}
			}
		}
	}
	JOINT Spine_virtual
	{
		OFFSET 0.000000 0.000000 0.000000
		CHANNELS 3 Xrotation Yrotation Zrotation
		JOINT Spine
		{
			OFFSET 0.072000 7.257294 -0.789700
			CHANNELS 3 Xrotation Yrotation Zrotation
			JOINT Spine1
			{
				OFFSET 0.000000 12.508769 -0.658067
				CHANNELS 3 Xrotation Yrotation Zrotation
				JOINT Spine1_split
				{
					OFFSET 0.000000 12.508769 -0.658067
					CHANNELS 3 Xrotation Yrotation Zrotation
					JOINT Spine2
					{
						OFFSET 0.000000 12.508769 -0.658067
						CHANNELS 3 Xrotation Yrotation Zrotation
						JOINT Neck_virtual
						{
							OFFSET 0.000000 0.000000 0.000000
							CHANNELS 3 Xrotation Yrotation Zrotation
							JOINT Neck
							{
								OFFSET 0.000000 14.033295 7.520400
								CHANNELS 3 Xrotation Yrotation Zrotation
								JOINT Head
								{
									OFFSET 0.000000 8.198502 5.703100
									CHANNELS 3 Xrotation Yrotation Zrotation
									JOINT HeadTop_End
									{
										OFFSET 0.000000 17.760803 13.332701
										CHANNELS 3 Xrotation Yrotation Zrotation
										End Site
										{
											OFFSET 0 0 0
										}
									}
								}
							}
						}
						JOINT LeftShoulder_virtual
						{
							OFFSET 0.000000 0.000000 0.000000
							CHANNELS 3 Xrotation Yrotation Zrotation
							JOINT LeftShoulder
							{
								OFFSET 6.292450 5.785301 -0.669000
								CHANNELS 3 Xrotation Yrotation Zrotation
								JOINT LeftShoulder_split
								{
									OFFSET 6.292450 5.785301 -0.669000
									CHANNELS 3 Xrotation Yrotation Zrotation
									JOINT LeftArm
									{
										OFFSET 13.907140 -6.093903 1.965100
										CHANNELS 3 Xrotation Yrotation Zrotation
										JOINT LeftForeArm
										{
											OFFSET 34.140198 0.000000 0.000000
											CHANNELS 3 Xrotation Yrotation Zrotation
											JOINT LeftHand
											{
												OFFSET 40.960209 0.000000 0.000000
												CHANNELS 3 Xrotation Yrotation Zrotation
												End Site
												{
													OFFSET 0 0 0
												}
											}
										}
									}
								}
							}
						}
						JOINT RightShoulder_virtual
						{
							OFFSET 0.000000 0.000000 0.000000
							CHANNELS 3 Xrotation Yrotation Zrotation
							JOINT RightShoulder
							{
								OFFSET -6.292450 5.785301 -0.669000
								CHANNELS 3 Xrotation Yrotation Zrotation
								JOINT RightShoulder_split
								{
									OFFSET -6.292450 5.785301 -0.669000
									CHANNELS 3 Xrotation Yrotation Zrotation
									JOINT RightArm
									{
										OFFSET -13.907140 -6.093903 1.965100
										CHANNELS 3 Xrotation Yrotation Zrotation
										JOINT RightForeArm
										{
											OFFSET -34.140198 0.000000 0.000000
											CHANNELS 3 Xrotation Yrotation Zrotation
											JOINT RightHand
											{
												OFFSET -40.960209 0.000000 0.000000
												CHANNELS 3 Xrotation Yrotation Zrotation
												End Site
												{
													OFFSET 0 0 0
												}
											}
										}
									}
								}
							}
						}
					}
				}
			}
		}
	}
}
MOTION
Frames: 11
Frame Time: 0.03333333
35.704391 26.621239 -13.245083 0.000000 0.000000 0.000000 -82.421655 59.994182 4.866062 -75.266397 -6.615543 -4.217342 69.970063 37.861432 -22.087264 16.961989 -15.414157 16.059329 13.556122 5.203995 0.698349 0.000000 0.000000 0.000000 -80.588596 63.336774 3.862208 -14.243589 2.413431 5.590767 50.510994 -10.361946 4.104188 11.262261 -19.581819 1.571477 -2.379123 -6.755356 -21.048958 0.000000 0.000000 0.000000 -80.885170 61.624767 -1.820790 22.111721 -4.524043 -7.521992 0.521367 -4.466408 -3.028612 0.175738 0.876515 -0.170847 0.000000 0.000000 0.000000 1.432590 -0.666514 -1.184513 4.391483 3.761402 -11.821769 12.358462 -37.925814 -13.398176 0.000000 0.000000 0.000000 2.192374 -1.475730 -1.708842 -4.948156 14.820617 11.972391 14.304316 -12.574591 1.498244 -93.799357 32.323669 -40.008171 -9.366728 -37.002953 -4.999885 0.000000 0.000000 0.000000 0.623425 -3.380551 -1.695446 -14.891460 10.438724 -2.720712 12.436595 -3.078708 7.471628 -57.597244 61.935554 120.313400 -71.796080 71.615264 57.587299 0.000000 0.000000 0.000000 
35.705452 26.535614 -13.489437 0.000000 0.000000 0.000000 -82.289696 60.035956 4.791542 -75.324521 -6.872217 -4.400270 70.186225 37.556212 -21.904176 17.031346 -15.427736 16.011480 13.394281 5.195526 0.689934 0.000000 0.000000 0.000000 -80.621736 63.284114 3.783813 -14.396743 2.693102 5.807954 50.758845 -10.487375 4.136457 11.132618 -19.574180 1.594914 -2.154988 -6.781460 -20.937028 0.000000 0.000000 0.000000 -81.052612 61.525285 -1.740478 22.012011 -4.571359 -7.498015 0.527775 -4.634601 -3.011764 0.177613 0.892210 -0.178805 0.000000 0.000000 0.000000 1.384718 -0.831879 -1.087992 4.248576 3.806157 -12.039789 13.501546 -37.778012 -12.778429 0.000000 0.000000 0.000000 2.095056 -1.584347 -1.669874 -4.916809 15.073196 11.560540 14.106011 -12.126869 1.687422 -93.475934 31.974110 -40.435939 -9.471868 -37.104398 -5.348197 0.000000 0.000000 0.000000 0.544511 -3.516508 -1.663625 -14.928307 10.649743 -2.675757 12.967387 -3.143509 7.714264 -58.854989 62.073490 121.210272 -71.931338 71.756157 57.780115 0.000000 0.000000 0.000000 
35.668369 26.365974 -13.676815 0.000000 0.000000 0.000000 -82.225820 60.018245 4.771111 -75.518437 -6.920878 -4.457823 70.709902 36.899633 -21.751147 17.143288 -15.528186 16.174892 13.142925 5.172613 0.701646 0.000000 0.000000 0.000000 -80.484620 63.193764 3.583388 -14.758381 2.989454 5.991076 50.999032 -10.396562 4.114801 11.362866 -19.283647 2.251677 -2.042598 -6.729969 -21.193339 0.000000 0.000000 0.000000 -81.217861 61.480247 -1.623436 21.870476 -4.717736 -7.505671 0.525150 -4.870093 -2.937456 0.157846 0.909258 -0.199576 0.000000 0.000000 0.000000 1.284678 -1.092351 -0.951112 4.143569 3.990769 -12.481140 15.150883 -37.315188 -11.389926 0.000000 0.000000 0.000000 1.975612 -1.773186 -1.597395 -4.843105 15.300507 10.961978 13.915994 -11.865496 2.090683 -93.071621 31.478225 -40.834088 -9.542988 -36.831167 -5.827761 0.000000 0.000000 0.000000 0.491505 -3.730184 -1.586166 -14.910072 11.067710 -2.717510 13.470818 -3.321499 7.766277 -60.703354 62.530915 122.707026 -71.334284 71.957218 57.253299 0.000000 0.000000 0.000000 
35.575401 26.162933 -13.801128 0.000000 0.000000 0.000000 -82.298732 59.980570 4.879697 -75.782055 -6.710074 -4.365130 71.371447 36.030904 -21.631752 17.201078 -15.685186 16.583085 12.924478 5.131121 0.735575 0.000000 0.000000 0.000000 -80.272249 63.069557 3.333970 -15.238707 3.240704 6.102181 51.008744 -10.140759 3.995510 11.650348 -18.815774 3.252226 -1.772778 -6.651812 -21.748260 0.000000 0.000000 0.000000 -81.336939 61.526863 -1.472690 21.715661 -4.952215 -7.563258 0.523449 -5.159200 -2.812754 0.137569 0.927022 -0.205407 0.000000 0.000000 0.000000 1.167098 -1.423490 -0.791905 4.073867 4.277443 -13.056421 17.006906 -36.573607 -9.450228 0.000000 0.000000 0.000000 1.872296 -2.037249 -1.496833 -4.712538 15.442045 10.198328 13.747997 -11.742146 2.564158 -92.575797 30.815382 -40.924813 -9.670450 -36.568450 -6.439797 0.000000 0.000000 0.000000 0.456893 -4.010177 -1.469711 -14.802512 11.618908 -2.841736 13.725812 -3.618790 7.713321 -62.559437 63.126760 124.371174 -70.615045 72.272595 56.632780 0.000000 0.000000 0.000000 
35.444309 26.012421 -13.886013 0.000000 0.000000 0.000000 -82.463299 59.937622 5.043027 -76.027252 -6.277236 -4.142584 71.916920 35.076573 -21.492017 17.153691 -15.858905 17.149212 12.765670 5.074219 0.799620 0.000000 0.000000 0.000000 -80.060117 62.892546 3.041312 -15.710904 3.364301 6.124068 50.840257 -9.806646 3.815343 11.806732 -18.379909 4.213656 -1.068632 -6.611248 -22.480567 0.000000 0.000000 0.000000 -81.423539 61.618497 -1.330578 21.559946 -5.256210 -7.672986 0.540934 -5.476498 -2.644036 0.119557 0.933028 -0.209542 0.000000 0.000000 0.000000 1.067299 -1.788576 -0.622671 4.033725 4.623966 -13.647517 18.704859 -35.734238 -7.251602 0.000000 0.000000 0.000000 1.794795 -2.355768 -1.379169 -4.515966 15.389987 9.280939 13.762501 -11.505495 3.038819 -92.027189 29.910522 -40.603200 -9.881362 -36.592513 -7.140127 0.000000 0.000000 0.000000 0.430828 -4.336931 -1.324643 -14.582517 12.221569 -2.961019 13.574351 -3.814752 7.477442 -63.880157 63.669125 125.718265 -70.281253 72.716967 56.456141 0.000000 0.000000 0.000000 
35.259609 25.947456 -14.006680 0.000000 0.000000 0.000000 -82.602689 59.872427 5.140950 -76.228183 -5.726960 -3.845109 72.180503 34.163329 -21.311556 17.030373 -16.001624 17.793703 12.612719 5.009749 0.904921 0.000000 0.000000 0.000000 -79.902626 62.718670 2.776382 -16.159656 3.282016 6.049933 50.614915 -9.490739 3.648139 11.994791 -18.116653 5.075613 -0.242568 -6.579879 -23.329715 0.000000 0.000000 0.000000 -81.592122 61.771787 -1.092340 21.406262 -5.617163 -7.806977 0.575258 -5.800097 -2.460193 0.111618 0.919128 -0.213474 0.000000 0.000000 0.000000 1.029508 -2.142519 -0.467767 4.003119 4.956370 -14.161514 19.978910 -35.025869 -5.055710 0.000000 0.000000 0.000000 1.751868 -2.698311 -1.256029 -4.243407 15.055323 8.232683 13.914262 -11.068334 3.336772 -91.515458 28.757962 -39.833745 -10.060790 -36.911783 -7.760191 0.000000 0.000000 0.000000 0.391880 -4.673475 -1.166733 -14.254389 12.815224 -2.963446 13.286477 -3.752625 7.081727 -64.151261 63.932497 126.268737 -70.873362 73.308892 57.287529 0.000000 0.000000 0.000000 
35.018848 25.984848 -14.124523 0.000000 0.000000 0.000000 -82.805143 59.803169 5.196311 -76.392585 -5.173740 -3.525702 72.192183 33.354566 -21.109570 16.912891 -16.100682 18.427919 12.412596 4.941051 1.033677 0.000000 0.000000 0.000000 -79.985955 62.669117 2.716755 -16.624209 3.045843 5.873273 50.472861 -9.165259 3.513265 12.580248 -17.994335 6.135141 -0.069285 -6.428578 -24.275399 0.000000 0.000000 0.000000 -82.048303 62.013152 -0.607743 21.249507 -6.005441 -7.940527 0.625571 -6.097852 -2.289696 0.114514 0.882907 -0.205979 0.000000 0.000000 0.000000 1.051226 -2.447659 -0.348350 4.032344 5.222024 -14.508138 20.702522 -34.593996 -3.052869 0.000000 0.000000 0.000000 1.749088 -3.019356 -1.133671 -3.902449 14.409565 7.152192 14.103981 -10.503893 3.356684 -91.042365 27.461843 -38.824226 -10.061937 -37.305073 -8.094901 0.000000 0.000000 0.000000 0.337205 -4.994744 -1.035647 -13.833844 13.394376 -2.710700 13.010599 -3.366613 6.672752 -63.058082 63.845289 125.687707 -72.704154 73.996617 59.484452 0.000000 0.000000 0.000000 
34.720779 26.109489 -14.260098 0.000000 0.000000 0.000000 -83.175517 59.829452 5.332672 -76.561537 -4.738828 -3.233312 72.116143 32.697779 -20.939400 16.885787 -16.108328 18.997232 12.222141 4.862248 1.121538 0.000000 0.000000 0.000000 -80.419556 62.855123 3.013637 -17.042686 2.788197 5.670645 50.520013 -8.804478 3.404700 13.510359 -17.983722 7.418710 -0.775345 -6.122102 -25.240421 0.000000 0.000000 0.000000 -82.939267 62.359982 0.167812 21.082979 -6.383814 -8.017313 0.680151 -6.326641 -2.161020 0.127885 0.846091 -0.204254 0.000000 0.000000 0.000000 1.130339 -2.668518 -0.273239 4.112290 5.351127 -14.661781 20.889596 -34.746876 -1.334303 0.000000 0.000000 0.000000 1.775623 -3.267962 -1.025342 -3.514915 13.501038 6.093590 14.317737 -9.878994 3.158769 -90.738407 26.174390 -38.003125 -9.512959 -37.189164 -7.839159 0.000000 0.000000 0.000000 0.290959 -5.255779 -0.965077 -13.345079 13.917062 -2.105639 12.777434 -2.699737 6.278034 -60.778104 63.404229 123.995295 -75.861101 74.704579 63.133863 0.000000 0.000000 0.000000 
34.378117 26.262756 -14.406025 0.000000 0.000000 0.000000 -83.821106 59.984682 5.687393 -76.751628 -4.567631 -3.061951 72.060272 32.240088 -20.814211 16.964327 -16.001777 19.508914 12.118800 4.772990 1.116257 0.000000 0.000000 0.000000 -81.099358 63.282345 3.649431 -17.293373 2.617673 5.528607 50.633777 -8.567960 3.345603 14.357317 -18.176201 8.567006 -1.847595 -5.756413 -26.091039 0.000000 0.000000 0.000000 -84.249188 62.816867 1.197328 20.908753 -6.712922 -7.996077 0.729474 -6.457088 -2.103011 0.135443 0.823637 -0.208960 0.000000 0.000000 0.000000 1.224344 -2.772277 -0.254719 4.238234 5.293108 -14.649694 20.725224 -35.553078 0.094026 0.000000 0.000000 0.000000 1.830056 -3.407647 -0.941635 -3.104530 12.434995 5.129410 14.643374 -9.492168 3.077355 -90.628011 25.208476 -37.546055 -8.216316 -36.390223 -6.775099 0.000000 0.000000 0.000000 0.280209 -5.416544 -0.972367 -12.806374 14.312733 -1.232503 12.497880 -1.902429 5.854973 -57.629421 62.658072 121.327205 -79.961878 75.297672 67.792865 0.000000 0.000000 0.000000 
34.048641 26.399673 -14.499928 0.000000 0.000000 0.000000 -84.797400 60.300694 6.343110 -76.907349 -4.704858 -3.082578 71.994531 31.987473 -20.677964 17.097113 -15.814816 19.944653 12.079475 4.674538 1.036146 0.000000 0.000000 0.000000 -82.032402 63.875335 4.650838 -17.292818 2.608093 5.481395 50.690563 -8.487338 3.334287 14.674404 -18.596771 9.288616 -2.740560 -5.436773 -26.730791 0.000000 0.000000 0.000000 -85.920590 63.318381 2.449680 20.735857 -6.947805 -7.863494 0.778566 -6.455895 -2.118596 0.135893 0.827381 -0.211646 0.000000 0.000000 0.000000 1.270216 -2.741922 -0.293172 4.403055 5.075765 -14.547427 20.341458 -37.001908 1.261581 0.000000 0.000000 0.000000 1.913582 -3.407275 -0.899088 -2.676673 11.330079 4.345111 14.938828 -9.259144 3.220631 -90.724262 24.648882 -37.638058 -6.253099 -34.755056 -4.978216 0.000000 0.000000 0.000000 0.314807 -5.448613 -1.052707 -12.227174 14.551590 -0.274274 12.146161 -1.116489 5.437627 -54.167119 61.720984 118.074682 -84.266093 75.668838 72.662605 0.000000 0.000000 0.000000 
33.744377 26.457550 -14.601620 0.000000 0.000000 0.000000 -86.018931 60.688690 7.298871 -77.038913 -5.114188 -3.331526 71.875365 31.980824 -20.515906 17.251980 -15.585967 20.304643 12.002200 4.564628 0.946512 0.000000 0.000000 0.000000 -83.255532 64.520262 6.025769 -17.023138 2.770109 5.461927 50.776787 -8.476593 3.319753 14.346186 -19.192319 9.638243 -3.365676 -5.185447 -27.193927 0.000000 0.000000 0.000000 -87.835734 63.795442 3.871833 20.585714 -7.074302 -7.639389 0.843849 -6.320099 -2.192330 0.123582 0.837778 -0.200760 0.000000 0.000000 0.000000 1.269096 -2.581214 -0.388679 4.484276 4.703513 -14.414691 19.928511 -39.001217 2.261004 0.000000 0.000000 0.000000 2.040093 -3.281291 -0.892234 -2.232968 10.271698 3.725474 15.158085 -9.163956 3.409207 -90.787435 24.376566 -38.342186 -3.832166 -32.618948 -2.659713 0.000000 0.000000 0.000000 0.379988 -5.343228 -1.173230 -11.616421 14.577087 0.481811 11.726728 -0.434973 5.141152 -51.075055 60.675343 114.903876 -88.862940 75.849510 77.774702 0.000000 0.000000 0.000000 
